# xmcd CD database file
#
# Track frame offsets:
#	150
#	18254
#	37037
#	51676
#	68986
#	88116
#	105377
#	121795
#	141867
#
# Disc length: 2109 seconds
#
# Revision: 0
# Processed by: cddbd v1.5.2PL0 Copyright (c) Steve Scherf et al.
# Submitted via: CDex 1.70
#
DISCID=7b083b09
DTITLE=Ronny Smith - Simply Stated
DYEAR=1900
DGENRE=Smooth Jazz
TTITLE0=Bossa Awhile
TTITLE1=Chillin After Eight
TTITLE2=Majorca Remix
TTITLE3=Josey
TTITLE4=Laidback Remix
TTITLE5=She`s So Specail Remix
TTITLE6=Simply Stated
TTITLE7=Fallin in Love with Jesus
TTITLE8=Funny How Time Flies 
EXTD=
EXTT0=
EXTT1=
EXTT2=
EXTT3=
EXTT4=
EXTT5=
EXTT6=
EXTT7=
EXTT8=
PLAYORDER=
